<?xml version="1.0" standalone="no"?>
<svg version="1.0" xmlns="http://www.w3.org/2000/svg"
 width="378.000000pt" height="466.000000pt" viewBox="0 0 378.000000 466.000000"
 preserveAspectRatio="xMidYMid meet">
<metadata>
Created by potrace 1.16, written by Peter Selinger 2001-2019
</metadata>
<g transform="translate(0.000000,466.000000) scale(0.100000,-0.100000)"
fill="#000000" stroke="none">
<path d="M1152 4648 c-47 -9 -54 -13 -73 -50 -17 -33 -18 -45 -10 -70 15 -42
14 -265 -1 -360 -11 -71 -14 -78 -35 -78 -29 0 -149 60 -190 94 -17 14 -34 26
-38 26 -6 0 -59 39 -77 58 -8 8 -71 86 -105 130 -32 43 -95 49 -139 16 -45
-35 -68 -94 -54 -145 12 -45 33 -59 87 -59 31 0 52 -11 111 -56 41 -30 124
-89 185 -130 62 -41 117 -78 123 -83 5 -5 20 -13 31 -20 28 -14 59 -67 67
-114 6 -33 4 -38 -19 -47 -16 -6 -43 -6 -76 0 -29 6 -70 10 -92 10 -27 0 -48
7 -62 20 -13 12 -42 23 -72 26 -44 6 -51 4 -65 -17 -21 -33 -31 -95 -19 -118
6 -11 26 -29 45 -41 33 -20 37 -20 66 -5 25 13 38 14 64 5 58 -19 263 -21 344
-4 67 15 74 15 98 -1 24 -15 25 -21 19 -61 -7 -48 9 -142 31 -185 12 -25 12
-27 -9 -33 -52 -14 -77 -7 -95 27 -9 17 -40 55 -68 83 -56 57 -98 71 -176 60
-125 -19 -187 -49 -232 -114 -33 -48 -42 -100 -27 -162 12 -52 5 -63 -69 -113
-58 -38 -138 -115 -155 -147 -19 -38 -29 -206 -15 -262 11 -41 25 -58 114
-139 120 -109 202 -164 344 -232 102 -49 105 -51 168 -136 35 -47 78 -113 95
-146 42 -79 188 -295 250 -370 45 -54 48 -61 33 -72 -29 -21 -136 -52 -220
-63 -71 -9 -89 -8 -135 7 l-54 18 -30 95 c-17 52 -43 119 -57 149 -24 48 -45
119 -63 203 -3 15 -21 43 -40 63 -41 41 -88 47 -126 16 -22 -17 -22 -21 -10
-62 7 -24 27 -56 46 -74 42 -38 82 -161 71 -217 -11 -62 -35 -81 -104 -86 -60
-4 -62 -4 -234 87 -164 86 -278 166 -278 195 0 7 -12 24 -28 39 -26 25 -29 26
-75 14 -39 -10 -55 -21 -81 -56 -29 -38 -32 -49 -26 -78 14 -61 34 -80 91 -87
54 -7 169 -57 190 -82 6 -8 17 -14 23 -14 7 0 30 -13 52 -30 21 -16 43 -30 48
-30 5 0 37 -13 72 -30 56 -26 64 -33 70 -65 3 -19 3 -47 -1 -62 -6 -27 -61
-93 -77 -93 -11 0 -86 -55 -130 -96 -20 -19 -41 -34 -46 -34 -27 0 -121 -52
-136 -74 -14 -22 -15 -33 -6 -65 19 -71 143 -119 187 -73 10 10 40 44 67 76
39 47 64 65 135 97 97 46 72 47 296 -11 93 -23 151 -32 255 -36 224 -9 342 24
565 162 22 13 69 39 104 56 76 39 87 57 72 127 -6 29 -11 62 -11 74 1 20 2 20
11 5 5 -10 14 -18 20 -18 12 0 73 -42 78 -53 2 -5 33 -28 70 -51 65 -42 79
-46 215 -66 38 -6 75 -15 82 -21 16 -13 -26 -52 -191 -176 -114 -87 -121 -94
-137 -145 -29 -90 -31 -137 -8 -209 11 -35 20 -66 20 -67 0 -2 -64 -3 -142 -1
-137 3 -198 12 -198 29 0 16 -45 19 -67 4 -18 -11 -23 -24 -23 -58 0 -25 3
-52 6 -61 11 -27 49 -36 81 -20 60 31 176 10 202 -36 14 -24 13 -31 -4 -70
-26 -58 -80 -124 -119 -143 -75 -37 -169 -67 -219 -69 -58 -2 -87 -18 -87 -48
0 -38 48 -102 94 -126 28 -14 30 -14 47 8 10 13 19 27 19 31 0 17 302 93 333
83 7 -2 24 -6 39 -9 17 -4 34 -18 43 -37 15 -28 15 -33 -2 -62 -20 -33 -49
-52 -95 -62 -44 -9 -38 -53 12 -99 22 -20 44 -36 49 -36 12 0 61 40 61 50 0 4
50 59 111 121 61 62 128 138 149 170 42 61 85 99 165 143 28 16 67 44 87 64
36 34 55 44 158 80 25 8 88 41 140 72 52 31 124 70 160 87 36 18 94 52 130 77
36 25 88 62 117 81 29 19 74 57 101 84 27 27 74 61 104 75 84 40 98 60 100
142 1 54 -3 78 -20 110 -26 51 -35 56 -145 69 l-88 10 53 56 c114 121 201 226
224 269 30 58 33 154 5 208 -10 20 -21 49 -25 64 l-6 27 29 -17 c26 -14 37
-15 87 -4 66 13 96 37 113 90 19 57 2 102 -93 246 -47 70 -88 137 -92 149 -11
39 -65 126 -107 176 -23 27 -73 98 -111 157 -38 60 -88 127 -112 150 -48 47
-62 92 -73 244 -4 52 -13 106 -20 118 -39 72 34 514 95 583 8 8 14 34 14 56 0
34 -4 42 -22 47 -35 9 -77 7 -99 -5 -18 -9 -19 -17 -14 -64 6 -47 3 -60 -26
-120 -35 -70 -78 -115 -109 -115 -43 0 -93 98 -71 139 15 26 14 74 -1 89 -13
13 -96 16 -115 4 -23 -15 -26 -60 -5 -89 38 -55 36 -241 -4 -270 -39 -28 -135
16 -159 73 -11 28 -19 34 -44 34 -28 0 -30 -2 -36 -54 -9 -68 4 -92 55 -106
43 -11 93 -56 127 -113 l21 -36 -26 -5 c-15 -3 -53 -8 -85 -11 -55 -6 -58 -8
-79 -48 -20 -40 -28 -138 -17 -202 3 -17 -2 -20 -36 -23 -31 -2 -50 4 -78 23
-21 14 -48 25 -60 25 -13 0 -28 5 -34 11 -6 6 -51 20 -99 30 -49 11 -102 28
-118 39 -26 16 -30 25 -32 74 -6 113 -25 145 -183 311 -16 17 -45 58 -66 93
-50 87 -82 120 -178 189 -87 64 -126 84 -307 160 -156 65 -164 72 -168 166 -4
80 24 192 58 232 27 32 40 61 40 93 0 24 -8 34 -36 51 -39 23 -36 23 -112 9z
m408 -1095 c76 -79 134 -152 127 -159 -10 -10 -116 -16 -171 -10 -66 9 -88 28
-106 92 -15 52 -2 96 38 131 32 27 40 23 112 -54z"/>
</g>
</svg>
