<svg xmlns="http://www.w3.org/2000/svg" viewBox="0 0 220 120" role="img" aria-label="Genomic windows along a chromosome; in two highlighted windows the allele-frequency change vectors of three populations point the same way — parallel evolution">
<rect x="8" y="106" width="204" height="2.5" rx="1.25" fill="#4e5a66"/>
<rect x="10" y="14" width="30" height="86" rx="5" fill="#eef0ec" stroke="#c9cfc6"/>
<rect x="21" y="100" width="8" height="8" fill="#4e5a66" opacity=".35"/>
<line x1="18.0" y1="74.0" x2="38.6" y2="67.6" stroke="#c96a2c" stroke-width="2" stroke-linecap="round"/><path d="M38.6 67.6 L34.5 71.9 L32.8 66.4 Z" fill="#c96a2c"/>
<line x1="25.0" y1="70.0" x2="6.6" y2="79.5" stroke="#7b4fc9" stroke-width="2" stroke-linecap="round"/><path d="M6.6 79.5 L10.0 74.5 L12.6 79.6 Z" fill="#7b4fc9"/>
<line x1="32.0" y1="66.0" x2="53.8" y2="67.1" stroke="#5aa650" stroke-width="2" stroke-linecap="round"/><path d="M53.8 67.1 L48.4 69.7 L48.7 63.9 Z" fill="#5aa650"/>
<rect x="44" y="14" width="30" height="86" rx="5" fill="#f7e8c3" stroke="#c9cfc6"/>
<rect x="55" y="100" width="8" height="8" fill="#4e5a66" opacity=".35"/>
<line x1="52.0" y1="74.0" x2="66.6" y2="45.5" stroke="#c96a2c" stroke-width="2" stroke-linecap="round"/><path d="M66.6 45.5 L66.7 51.5 L61.6 48.9 Z" fill="#c96a2c"/>
<line x1="59.0" y1="70.0" x2="75.1" y2="42.3" stroke="#7b4fc9" stroke-width="2" stroke-linecap="round"/><path d="M75.1 42.3 L74.9 48.3 L69.9 45.4 Z" fill="#7b4fc9"/>
<line x1="66.0" y1="66.0" x2="82.6" y2="38.6" stroke="#5aa650" stroke-width="2" stroke-linecap="round"/><path d="M82.6 38.6 L82.3 44.6 L77.4 41.6 Z" fill="#5aa650"/>
<rect x="78" y="14" width="30" height="86" rx="5" fill="#eef0ec" stroke="#c9cfc6"/>
<rect x="89" y="100" width="8" height="8" fill="#4e5a66" opacity=".35"/>
<line x1="86.0" y1="74.0" x2="81.5" y2="90.3" stroke="#c96a2c" stroke-width="2" stroke-linecap="round"/><path d="M81.5 90.3 L80.1 84.5 L85.7 86.0 Z" fill="#c96a2c"/>
<line x1="93.0" y1="70.0" x2="98.6" y2="54.0" stroke="#7b4fc9" stroke-width="2" stroke-linecap="round"/><path d="M98.6 54.0 L99.5 60.0 L94.1 58.1 Z" fill="#7b4fc9"/>
<line x1="100.0" y1="66.0" x2="91.6" y2="87.3" stroke="#5aa650" stroke-width="2" stroke-linecap="round"/><path d="M91.6 87.3 L90.9 81.4 L96.2 83.5 Z" fill="#5aa650"/>
<rect x="112" y="14" width="30" height="86" rx="5" fill="#eef0ec" stroke="#c9cfc6"/>
<rect x="123" y="100" width="8" height="8" fill="#4e5a66" opacity=".35"/>
<line x1="120.0" y1="74.0" x2="95.1" y2="67.3" stroke="#c96a2c" stroke-width="2" stroke-linecap="round"/><path d="M95.1 67.3 L100.9 65.9 L99.4 71.4 Z" fill="#c96a2c"/>
<line x1="127.0" y1="70.0" x2="105.0" y2="75.0" stroke="#7b4fc9" stroke-width="2" stroke-linecap="round"/><path d="M105.0 75.0 L109.5 71.0 L110.8 76.6 Z" fill="#7b4fc9"/>
<line x1="134.0" y1="66.0" x2="147.1" y2="77.7" stroke="#5aa650" stroke-width="2" stroke-linecap="round"/><path d="M147.1 77.7 L141.3 76.3 L145.1 72.0 Z" fill="#5aa650"/>
<rect x="146" y="14" width="30" height="86" rx="5" fill="#f7e8c3" stroke="#c9cfc6"/>
<rect x="157" y="100" width="8" height="8" fill="#4e5a66" opacity=".35"/>
<line x1="154.0" y1="74.0" x2="167.8" y2="45.1" stroke="#c96a2c" stroke-width="2" stroke-linecap="round"/><path d="M167.8 45.1 L168.1 51.1 L162.9 48.6 Z" fill="#c96a2c"/>
<line x1="161.0" y1="70.0" x2="177.1" y2="42.4" stroke="#7b4fc9" stroke-width="2" stroke-linecap="round"/><path d="M177.1 42.4 L177.0 48.4 L172.0 45.5 Z" fill="#7b4fc9"/>
<line x1="168.0" y1="66.0" x2="182.0" y2="37.2" stroke="#5aa650" stroke-width="2" stroke-linecap="round"/><path d="M182.0 37.2 L182.3 43.2 L177.1 40.7 Z" fill="#5aa650"/>
<rect x="180" y="14" width="30" height="86" rx="5" fill="#eef0ec" stroke="#c9cfc6"/>
<rect x="191" y="100" width="8" height="8" fill="#4e5a66" opacity=".35"/>
<line x1="188.0" y1="74.0" x2="181.2" y2="56.9" stroke="#c96a2c" stroke-width="2" stroke-linecap="round"/><path d="M181.2 56.9 L185.8 60.7 L180.5 62.8 Z" fill="#c96a2c"/>
<line x1="195.0" y1="70.0" x2="174.7" y2="66.1" stroke="#7b4fc9" stroke-width="2" stroke-linecap="round"/><path d="M174.7 66.1 L180.4 64.3 L179.4 69.9 Z" fill="#7b4fc9"/>
<line x1="202.0" y1="66.0" x2="224.7" y2="57.1" stroke="#5aa650" stroke-width="2" stroke-linecap="round"/><path d="M224.7 57.1 L220.9 61.7 L218.8 56.3 Z" fill="#5aa650"/>
</svg>