<svg xmlns="http://www.w3.org/2000/svg" viewBox="0 0 207 99" role="img" aria-label="A genotype plot: individuals in rows, variant sites in columns, cells coloured by genotype">
<rect x="6" y="6" width="15" height="12" rx="2" fill="#e2e7dd"/>
<rect x="24" y="6" width="15" height="12" rx="2" fill="#e2e7dd"/>
<rect x="42" y="6" width="15" height="12" rx="2" fill="#5e93a3"/>
<rect x="60" y="6" width="15" height="12" rx="2" fill="#e2e7dd"/>
<rect x="78" y="6" width="15" height="12" rx="2" fill="#e2e7dd"/>
<rect x="96" y="6" width="15" height="12" rx="2" fill="#e2e7dd"/>
<rect x="114" y="6" width="15" height="12" rx="2" fill="#e2e7dd"/>
<rect x="132" y="6" width="15" height="12" rx="2" fill="#e2e7dd"/>
<rect x="150" y="6" width="15" height="12" rx="2" fill="#e2e7dd"/>
<rect x="168" y="6" width="15" height="12" rx="2" fill="#e2e7dd"/>
<rect x="186" y="6" width="15" height="12" rx="2" fill="#e2e7dd"/>
<rect x="6" y="21" width="15" height="12" rx="2" fill="#e2e7dd"/>
<rect x="24" y="21" width="15" height="12" rx="2" fill="#e2e7dd"/>
<rect x="42" y="21" width="15" height="12" rx="2" fill="#5e93a3"/>
<rect x="60" y="21" width="15" height="12" rx="2" fill="#e2e7dd"/>
<rect x="78" y="21" width="15" height="12" rx="2" fill="#e2e7dd"/>
<rect x="96" y="21" width="15" height="12" rx="2" fill="#5e93a3"/>
<rect x="114" y="21" width="15" height="12" rx="2" fill="#333f5b"/>
<rect x="132" y="21" width="15" height="12" rx="2" fill="#e2e7dd"/>
<rect x="150" y="21" width="15" height="12" rx="2" fill="#e2e7dd"/>
<rect x="168" y="21" width="15" height="12" rx="2" fill="#333f5b"/>
<rect x="186" y="21" width="15" height="12" rx="2" fill="#e2e7dd"/>
<rect x="6" y="36" width="15" height="12" rx="2" fill="#5e93a3"/>
<rect x="24" y="36" width="15" height="12" rx="2" fill="#e2e7dd"/>
<rect x="42" y="36" width="15" height="12" rx="2" fill="#e2e7dd"/>
<rect x="60" y="36" width="15" height="12" rx="2" fill="#e2e7dd"/>
<rect x="78" y="36" width="15" height="12" rx="2" fill="#e2e7dd"/>
<rect x="96" y="36" width="15" height="12" rx="2" fill="#5e93a3"/>
<rect x="114" y="36" width="15" height="12" rx="2" fill="#e2e7dd"/>
<rect x="132" y="36" width="15" height="12" rx="2" fill="#e2e7dd"/>
<rect x="150" y="36" width="15" height="12" rx="2" fill="#5e93a3"/>
<rect x="168" y="36" width="15" height="12" rx="2" fill="#e2e7dd"/>
<rect x="186" y="36" width="15" height="12" rx="2" fill="#e2e7dd"/>
<rect x="6" y="51" width="15" height="12" rx="2" fill="#e2e7dd"/>
<rect x="24" y="51" width="15" height="12" rx="2" fill="#e2e7dd"/>
<rect x="42" y="51" width="15" height="12" rx="2" fill="#e2e7dd"/>
<rect x="60" y="51" width="15" height="12" rx="2" fill="#5e93a3"/>
<rect x="78" y="51" width="15" height="12" rx="2" fill="#5e93a3"/>
<rect x="96" y="51" width="15" height="12" rx="2" fill="#5e93a3"/>
<rect x="114" y="51" width="15" height="12" rx="2" fill="#333f5b"/>
<rect x="132" y="51" width="15" height="12" rx="2" fill="#e2e7dd"/>
<rect x="150" y="51" width="15" height="12" rx="2" fill="#e2e7dd"/>
<rect x="168" y="51" width="15" height="12" rx="2" fill="#5e93a3"/>
<rect x="186" y="51" width="15" height="12" rx="2" fill="#5e93a3"/>
<rect x="6" y="66" width="15" height="12" rx="2" fill="#e2e7dd"/>
<rect x="24" y="66" width="15" height="12" rx="2" fill="#e2e7dd"/>
<rect x="42" y="66" width="15" height="12" rx="2" fill="#e2e7dd"/>
<rect x="60" y="66" width="15" height="12" rx="2" fill="#5e93a3"/>
<rect x="78" y="66" width="15" height="12" rx="2" fill="#333f5b"/>
<rect x="96" y="66" width="15" height="12" rx="2" fill="#5e93a3"/>
<rect x="114" y="66" width="15" height="12" rx="2" fill="#333f5b"/>
<rect x="132" y="66" width="15" height="12" rx="2" fill="#e2e7dd"/>
<rect x="150" y="66" width="15" height="12" rx="2" fill="#e2e7dd"/>
<rect x="168" y="66" width="15" height="12" rx="2" fill="#5e93a3"/>
<rect x="186" y="66" width="15" height="12" rx="2" fill="#e2e7dd"/>
<rect x="6" y="81" width="15" height="12" rx="2" fill="#e2e7dd"/>
<rect x="24" y="81" width="15" height="12" rx="2" fill="#e2e7dd"/>
<rect x="42" y="81" width="15" height="12" rx="2" fill="#5e93a3"/>
<rect x="60" y="81" width="15" height="12" rx="2" fill="#5e93a3"/>
<rect x="78" y="81" width="15" height="12" rx="2" fill="#333f5b"/>
<rect x="96" y="81" width="15" height="12" rx="2" fill="#333f5b"/>
<rect x="114" y="81" width="15" height="12" rx="2" fill="#5e93a3"/>
<rect x="132" y="81" width="15" height="12" rx="2" fill="#5e93a3"/>
<rect x="150" y="81" width="15" height="12" rx="2" fill="#e2e7dd"/>
<rect x="168" y="81" width="15" height="12" rx="2" fill="#e2e7dd"/>
<rect x="186" y="81" width="15" height="12" rx="2" fill="#e2e7dd"/>
</svg>