<svg xmlns="http://www.w3.org/2000/svg" viewBox="0 0 220 120" role="img" aria-label="RAD-seq reads stacked at restriction-enzyme cut sites along a DNA molecule">
<rect x="8" y="104" width="204" height="3" rx="1.5" fill="#4e5a66"/>
<rect x="8" y="111" width="204" height="3" rx="1.5" fill="#4e5a66"/>
<rect x="14" y="106" width="1.5" height="6" fill="#4e5a66" opacity=".55"/>
<rect x="22" y="106" width="1.5" height="6" fill="#4e5a66" opacity=".55"/>
<rect x="30" y="106" width="1.5" height="6" fill="#4e5a66" opacity=".55"/>
<rect x="38" y="106" width="1.5" height="6" fill="#4e5a66" opacity=".55"/>
<rect x="46" y="106" width="1.5" height="6" fill="#4e5a66" opacity=".55"/>
<rect x="54" y="106" width="1.5" height="6" fill="#4e5a66" opacity=".55"/>
<rect x="62" y="106" width="1.5" height="6" fill="#4e5a66" opacity=".55"/>
<rect x="70" y="106" width="1.5" height="6" fill="#4e5a66" opacity=".55"/>
<rect x="78" y="106" width="1.5" height="6" fill="#4e5a66" opacity=".55"/>
<rect x="86" y="106" width="1.5" height="6" fill="#4e5a66" opacity=".55"/>
<rect x="94" y="106" width="1.5" height="6" fill="#4e5a66" opacity=".55"/>
<rect x="102" y="106" width="1.5" height="6" fill="#4e5a66" opacity=".55"/>
<rect x="110" y="106" width="1.5" height="6" fill="#4e5a66" opacity=".55"/>
<rect x="118" y="106" width="1.5" height="6" fill="#4e5a66" opacity=".55"/>
<rect x="126" y="106" width="1.5" height="6" fill="#4e5a66" opacity=".55"/>
<rect x="134" y="106" width="1.5" height="6" fill="#4e5a66" opacity=".55"/>
<rect x="142" y="106" width="1.5" height="6" fill="#4e5a66" opacity=".55"/>
<rect x="150" y="106" width="1.5" height="6" fill="#4e5a66" opacity=".55"/>
<rect x="158" y="106" width="1.5" height="6" fill="#4e5a66" opacity=".55"/>
<rect x="166" y="106" width="1.5" height="6" fill="#4e5a66" opacity=".55"/>
<rect x="174" y="106" width="1.5" height="6" fill="#4e5a66" opacity=".55"/>
<rect x="182" y="106" width="1.5" height="6" fill="#4e5a66" opacity=".55"/>
<rect x="190" y="106" width="1.5" height="6" fill="#4e5a66" opacity=".55"/>
<rect x="198" y="106" width="1.5" height="6" fill="#4e5a66" opacity=".55"/>
<rect x="206" y="106" width="1.5" height="6" fill="#4e5a66" opacity=".55"/>
<path d="M40 100 L44 94 L48 100 Z" fill="#b23a1a"/>
<rect x="43.25" y="94" width="1.5" height="20" fill="#b23a1a"/>
<rect x="44" y="86" width="36" height="5.5" rx="2.75" fill="#5e93a3"/>
<rect x="44" y="78" width="36" height="5.5" rx="2.75" fill="#8e9c8a"/>
<rect x="44" y="70" width="38" height="5.5" rx="2.75" fill="#5a6b8c"/>
<rect x="44" y="62" width="40" height="5.5" rx="2.75" fill="#5e93a3"/>
<rect x="44" y="54" width="34" height="5.5" rx="2.75" fill="#8e9c8a"/>
<rect x="44" y="46" width="34" height="5.5" rx="2.75" fill="#5a6b8c"/>
<path d="M108 100 L112 94 L116 100 Z" fill="#b23a1a"/>
<rect x="111.25" y="94" width="1.5" height="20" fill="#b23a1a"/>
<rect x="112" y="86" width="40" height="5.5" rx="2.75" fill="#5e93a3"/>
<rect x="112" y="78" width="38" height="5.5" rx="2.75" fill="#8e9c8a"/>
<rect x="112" y="70" width="36" height="5.5" rx="2.75" fill="#5a6b8c"/>
<rect x="112" y="62" width="36" height="5.5" rx="2.75" fill="#5e93a3"/>
<rect x="112" y="54" width="40" height="5.5" rx="2.75" fill="#8e9c8a"/>
<rect x="112" y="46" width="40" height="5.5" rx="2.75" fill="#5a6b8c"/>
<rect x="112" y="38" width="40" height="5.5" rx="2.75" fill="#5e93a3"/>
<path d="M172 100 L176 94 L180 100 Z" fill="#b23a1a"/>
<rect x="175.25" y="94" width="1.5" height="20" fill="#b23a1a"/>
<rect x="176" y="86" width="36" height="5.5" rx="2.75" fill="#5e93a3"/>
<rect x="176" y="78" width="36" height="5.5" rx="2.75" fill="#8e9c8a"/>
<rect x="176" y="70" width="36" height="5.5" rx="2.75" fill="#5a6b8c"/>
<rect x="176" y="62" width="40" height="5.5" rx="2.75" fill="#5e93a3"/>
<rect x="176" y="54" width="34" height="5.5" rx="2.75" fill="#8e9c8a"/>
</svg>